# Blender 3.4.1
# www.blender.org
mtllib arrow.mtl
o 円
v 0.000000 0.000000 -0.536895
v -0.866025 0.000000 0.500000
v 0.866025 0.000000 0.500000
v 0.288675 0.000000 0.500000
v -0.288675 0.000000 0.500000
v 0.288675 0.000000 2.441320
v -0.288675 0.000000 2.441320
v 0.000000 0.376949 -0.536895
v -0.866025 0.376949 0.500000
v 0.866025 0.376949 0.500000
v 0.288675 0.376949 0.500000
v -0.288675 0.376949 0.500000
v 0.288675 0.376949 2.441320
v -0.288675 0.376949 2.441320
vn -0.0000 -1.0000 -0.0000
vn -0.0000 1.0000 -0.0000
vn -1.0000 -0.0000 -0.0000
vn 0.7675 -0.0000 -0.6410
vn -0.7675 -0.0000 -0.6410
vn 1.0000 -0.0000 -0.0000
vn -0.0000 -0.0000 1.0000
vt 0.000000 0.000000
vt 0.000000 0.000000
vt 0.000000 0.000000
vt 0.000000 0.000000
vt 0.000000 0.000000
vt 0.000000 0.000000
vt 0.000000 0.000000
vt 0.000000 0.000000
vt 0.000000 0.000000
vt 0.000000 0.000000
vt 0.000000 0.000000
vt 0.000000 0.000000
vt 0.000000 0.000000
vt 0.000000 0.000000
s 0
f 4/4/1 6/6/1 7/7/1 5/5/1
f 2/2/1 1/1/1 3/3/1 4/4/1 5/5/1
f 11/11/2 12/12/2 14/14/2 13/13/2
f 9/9/2 12/12/2 11/11/2 10/10/2 8/8/2
f 5/5/3 7/7/3 14/14/3 12/12/3
f 3/3/4 1/1/4 8/8/4 10/10/4
f 1/1/5 2/2/5 9/9/5 8/8/5
f 6/6/6 4/4/6 11/11/6 13/13/6
f 7/7/7 6/6/7 13/13/7 14/14/7
f 4/4/7 3/3/7 10/10/7 11/11/7
f 2/2/7 5/5/7 12/12/7 9/9/7
